<mxfile host="app.diagrams.net" modified="2021-12-14T01:09:51.670Z" agent="5.0 (Windows)" etag="uqEdpurbD9PskxmOE38W" version="15.8.8" type="github">
  <diagram id="EHAnpOVYLgnEQBjKH4Ef" name="Page-1">
    <mxGraphModel dx="981" dy="546" grid="1" gridSize="10" guides="1" tooltips="1" connect="1" arrows="1" fold="1" page="1" pageScale="1" pageWidth="827" pageHeight="1169" math="0" shadow="0">
      <root>
        <mxCell id="0" />
        <mxCell id="1" parent="0" />
        <mxCell id="Uxf6OOUXA2ClWZzl3gYU-1" value="POLIDEPORTIVO" style="rounded=0;whiteSpace=wrap;html=1;" vertex="1" parent="1">
          <mxGeometry x="80" y="190" width="120" height="60" as="geometry" />
        </mxCell>
        <mxCell id="Uxf6OOUXA2ClWZzl3gYU-2" value="USUARIO" style="rounded=0;whiteSpace=wrap;html=1;" vertex="1" parent="1">
          <mxGeometry x="360" y="190" width="120" height="60" as="geometry" />
        </mxCell>
        <mxCell id="Uxf6OOUXA2ClWZzl3gYU-3" value="TRABAJADOR" style="rounded=0;whiteSpace=wrap;html=1;" vertex="1" parent="1">
          <mxGeometry x="80" y="30" width="120" height="60" as="geometry" />
        </mxCell>
        <mxCell id="Uxf6OOUXA2ClWZzl3gYU-4" value="ACTIVIDAD" style="rounded=0;whiteSpace=wrap;html=1;" vertex="1" parent="1">
          <mxGeometry x="80" y="350" width="120" height="60" as="geometry" />
        </mxCell>
        <mxCell id="Uxf6OOUXA2ClWZzl3gYU-5" value="SUSCRIPCIÃ“N" style="whiteSpace=wrap;html=1;" vertex="1" parent="1">
          <mxGeometry x="640" y="190" width="120" height="60" as="geometry" />
        </mxCell>
        <mxCell id="Uxf6OOUXA2ClWZzl3gYU-7" style="edgeStyle=orthogonalEdgeStyle;rounded=0;orthogonalLoop=1;jettySize=auto;html=1;exitX=0;exitY=0.5;exitDx=0;exitDy=0;" edge="1" parent="1" source="Uxf6OOUXA2ClWZzl3gYU-6" target="Uxf6OOUXA2ClWZzl3gYU-2">
          <mxGeometry relative="1" as="geometry" />
        </mxCell>
        <mxCell id="Uxf6OOUXA2ClWZzl3gYU-8" style="edgeStyle=orthogonalEdgeStyle;rounded=0;orthogonalLoop=1;jettySize=auto;html=1;exitX=1;exitY=0.5;exitDx=0;exitDy=0;" edge="1" parent="1" source="Uxf6OOUXA2ClWZzl3gYU-6" target="Uxf6OOUXA2ClWZzl3gYU-5">
          <mxGeometry relative="1" as="geometry" />
        </mxCell>
        <mxCell id="Uxf6OOUXA2ClWZzl3gYU-6" value="Contrata" style="rhombus;whiteSpace=wrap;html=1;" vertex="1" parent="1">
          <mxGeometry x="520" y="200" width="80" height="40" as="geometry" />
        </mxCell>
        <mxCell id="Uxf6OOUXA2ClWZzl3gYU-11" style="edgeStyle=orthogonalEdgeStyle;rounded=0;orthogonalLoop=1;jettySize=auto;html=1;exitX=0.5;exitY=0;exitDx=0;exitDy=0;entryX=0.5;entryY=1;entryDx=0;entryDy=0;" edge="1" parent="1" source="Uxf6OOUXA2ClWZzl3gYU-9" target="Uxf6OOUXA2ClWZzl3gYU-3">
          <mxGeometry relative="1" as="geometry" />
        </mxCell>
        <mxCell id="Uxf6OOUXA2ClWZzl3gYU-12" style="edgeStyle=orthogonalEdgeStyle;rounded=0;orthogonalLoop=1;jettySize=auto;html=1;exitX=0.5;exitY=1;exitDx=0;exitDy=0;entryX=0.5;entryY=0;entryDx=0;entryDy=0;" edge="1" parent="1" source="Uxf6OOUXA2ClWZzl3gYU-9" target="Uxf6OOUXA2ClWZzl3gYU-1">
          <mxGeometry relative="1" as="geometry" />
        </mxCell>
        <mxCell id="Uxf6OOUXA2ClWZzl3gYU-9" value="Trabaja" style="rhombus;whiteSpace=wrap;html=1;" vertex="1" parent="1">
          <mxGeometry x="100" y="120" width="80" height="40" as="geometry" />
        </mxCell>
        <mxCell id="Uxf6OOUXA2ClWZzl3gYU-14" style="edgeStyle=orthogonalEdgeStyle;rounded=0;orthogonalLoop=1;jettySize=auto;html=1;exitX=0.5;exitY=0;exitDx=0;exitDy=0;entryX=0.5;entryY=1;entryDx=0;entryDy=0;" edge="1" parent="1" source="Uxf6OOUXA2ClWZzl3gYU-13" target="Uxf6OOUXA2ClWZzl3gYU-1">
          <mxGeometry relative="1" as="geometry" />
        </mxCell>
        <mxCell id="Uxf6OOUXA2ClWZzl3gYU-15" style="edgeStyle=orthogonalEdgeStyle;rounded=0;orthogonalLoop=1;jettySize=auto;html=1;exitX=0.5;exitY=1;exitDx=0;exitDy=0;" edge="1" parent="1" source="Uxf6OOUXA2ClWZzl3gYU-13" target="Uxf6OOUXA2ClWZzl3gYU-4">
          <mxGeometry relative="1" as="geometry" />
        </mxCell>
        <mxCell id="Uxf6OOUXA2ClWZzl3gYU-13" value="Realiza" style="rhombus;whiteSpace=wrap;html=1;" vertex="1" parent="1">
          <mxGeometry x="100" y="280" width="80" height="40" as="geometry" />
        </mxCell>
        <mxCell id="Uxf6OOUXA2ClWZzl3gYU-17" style="edgeStyle=orthogonalEdgeStyle;rounded=0;orthogonalLoop=1;jettySize=auto;html=1;exitX=0;exitY=0.5;exitDx=0;exitDy=0;entryX=1;entryY=0.5;entryDx=0;entryDy=0;" edge="1" parent="1" source="Uxf6OOUXA2ClWZzl3gYU-16" target="Uxf6OOUXA2ClWZzl3gYU-1">
          <mxGeometry relative="1" as="geometry" />
        </mxCell>
        <mxCell id="Uxf6OOUXA2ClWZzl3gYU-18" style="edgeStyle=orthogonalEdgeStyle;rounded=0;orthogonalLoop=1;jettySize=auto;html=1;exitX=1;exitY=0.5;exitDx=0;exitDy=0;entryX=0;entryY=0.5;entryDx=0;entryDy=0;" edge="1" parent="1" source="Uxf6OOUXA2ClWZzl3gYU-16" target="Uxf6OOUXA2ClWZzl3gYU-2">
          <mxGeometry relative="1" as="geometry" />
        </mxCell>
        <mxCell id="Uxf6OOUXA2ClWZzl3gYU-16" value="Asiste" style="rhombus;whiteSpace=wrap;html=1;" vertex="1" parent="1">
          <mxGeometry x="240" y="200" width="80" height="40" as="geometry" />
        </mxCell>
      </root>
    </mxGraphModel>
  </diagram>
</mxfile>
